# xmcd
#
# Track frame offsets: 
#        150
#        18043
#        35133
#        55133
#        71260
#        86089
#        102107
#        118213
#        136552
#        153804
#        174692
#
# Disc length: 2503 seconds
#
# Revision: 0
# Processed by: cddbd v1.5.2PL0 Copyright (c) Steve Scherf et al.
# Submitted via: ExactAudioCopy v0.95b4
#
DISCID=8409c50b
DTITLE=Ben E. King - Dear Japan, Ue Wo Muite Arukou
DYEAR=2011
DGENRE=R&B
TTITLE0=Ue Wo Muite Arukou
TTITLE1=I Will Go Anywhere
TTITLE2=Stand By Me (Japanese Version)
TTITLE3=Save The Last Dance For Me
TTITLE4=On Broadway
TTITLE5=Under The Boardwalk
TTITLE6=Sweets For My Sweet
TTITLE7=Our House And Family
TTITLE8=Good Night Baby
TTITLE9=I Miss You
TTITLE10=Stand By Me
EXTD=
EXTT0=
EXTT1=
EXTT2=
EXTT3=
EXTT4=
EXTT5=
EXTT6=
EXTT7=
EXTT8=
EXTT9=
EXTT10=
PLAYORDER=
